<svg width="120" height="120" viewBox="0 0 120 120" fill="none" xmlns="http://www.w3.org/2000/svg" opacity="0.08">
  <circle cx="20" cy="20" r="3" stroke="currentColor" stroke-width="1"/>
  <path d="M50 15 L55 25 L65 20 L60 30 L70 35 L58 38 L55 48 L50 40 L45 48 L42 38 L30 35 L40 30 L35 20 L45 25 Z" stroke="currentColor" stroke-width="0.8" fill="none"/>
  <ellipse cx="90" cy="25" rx="8" ry="5" stroke="currentColor" stroke-width="1"/>
  <path d="M15 55 L25 60 L20 70 L30 65 L35 75 L25 80 L20 90 L15 80 L5 75 L10 65 Z" stroke="currentColor" stroke-width="0.8" fill="none"/>
  <rect x="45" y="55" width="18" height="18" rx="2" stroke="currentColor" stroke-width="1"/>
  <path d="M85 50 L95 55 L90 65 L100 62 L98 72 L88 70 L85 80 L82 70 L72 72 L70 62 L80 65 L75 55 L85 50Z" stroke="currentColor" stroke-width="0.8" fill="none"/>
  <circle cx="25" cy="95" r="5" stroke="currentColor" stroke-width="1"/>
  <path d="M55 85 L65 90 L62 100 L72 95 L75 105 L65 108 L62 118 L55 108 L48 118 L45 108 L35 105 L38 95 L48 100 Z" stroke="currentColor" stroke-width="0.8" fill="none"/>
  <ellipse cx="95" cy="95" rx="6" ry="8" stroke="currentColor" stroke-width="1"/>
</svg>
